<?xml version="1.0" encoding="UTF-8"?> <svg xmlns="http://www.w3.org/2000/svg" xmlns:xlink="http://www.w3.org/1999/xlink" width="602.375" height="644.37" viewBox="0 0 602.375 644.37"><defs><linearGradient id="a" x1="0.713" y1="0.219" x2="0.459" y2="0.544" gradientUnits="objectBoundingBox"><stop offset="0" stop-color="#fa4616"></stop><stop offset="1" stop-color="#ffb059" stop-opacity="0"></stop></linearGradient></defs><g transform="translate(248.376 -356.633)"><path d="M3170.981,1783.02h134.775c63.451,0,114.889,42.959,114.889,95.952h0c0,52.993,51.436,95.953,114.889,95.953h0c67.893,0,122.932,45.967,122.932,102.67v105.843c0,52.992-51.437,95.952-114.889,95.952H3408.8c-63.45,0-114.889-42.96-114.889-95.952h0c0-52.993-51.438-95.951-114.889-95.951H3056.091V1878.972C3056.091,1825.979,3107.53,1783.02,3170.981,1783.02Z" transform="translate(-3304.467 -1278.387)" fill="url(#a)"></path><path d="M1032-126.426c64.554,0,116.885-52.959,116.885-118.287S1096.554-363,1032-363Z" transform="translate(-1031.99 719.633)" fill="#b42204"></path></g></svg> 